<svg preserveAspectRatio="none" width="100%" height="100%" overflow="visible" style="display: block;" viewBox="0 0 38.1429 38.1447" fill="none" xmlns="http://www.w3.org/2000/svg">
<path id="Vector" d="M7.64286 19.0732V11.5589C7.66517 10.0819 7.97872 8.62376 8.56554 7.2681C9.15235 5.91243 10.0009 4.68588 11.0626 3.65872C12.1242 2.63156 13.3781 1.82399 14.7524 1.28226C16.1268 0.740543 17.5944 0.475324 19.0714 0.501804C20.5484 0.475324 22.0161 0.740543 23.3904 1.28226C24.7647 1.82399 26.0186 2.63156 27.0803 3.65872C28.142 4.68588 28.9905 5.91243 29.5773 7.2681C30.1641 8.62376 30.4777 10.0819 30.5 11.5589V19.0732M24.7857 34.0732C26.3012 34.0732 27.7547 33.4712 28.8263 32.3996C29.898 31.3279 30.5 29.8745 30.5 28.3589V21.9304M24.7857 34.0732C24.7857 35.0204 24.4094 35.9288 23.7397 36.5986C23.0699 37.2684 22.1615 37.6447 21.2143 37.6447H16.9286C15.9814 37.6447 15.073 37.2684 14.4032 36.5986C13.7334 35.9288 13.3571 35.0204 13.3571 34.0732C13.3571 33.126 13.7334 32.2176 14.4032 31.5479C15.073 30.8781 15.9814 30.5018 16.9286 30.5018H21.2143C22.1615 30.5018 23.0699 30.8781 23.7397 31.5479C24.4094 32.2176 24.7857 33.126 24.7857 34.0732ZM3.35714 14.7875H6.21429C6.59317 14.7875 6.95653 14.938 7.22444 15.2059C7.49235 15.4738 7.64286 15.8372 7.64286 16.2161V24.7875C7.64286 25.1664 7.49235 25.5298 7.22444 25.7977C6.95653 26.0656 6.59317 26.2161 6.21429 26.2161H3.35714C2.59938 26.2161 1.87266 25.9151 1.33684 25.3793C0.80102 24.8434 0.5 24.1167 0.5 23.3589V17.6447C0.5 16.8869 0.80102 16.1602 1.33684 15.6244C1.87266 15.0885 2.59938 14.7875 3.35714 14.7875ZM34.7857 26.2161H31.9286C31.5497 26.2161 31.1863 26.0656 30.9184 25.7977C30.6505 25.5298 30.5 25.1664 30.5 24.7875V16.2161C30.5 15.8372 30.6505 15.4738 30.9184 15.2059C31.1863 14.938 31.5497 14.7875 31.9286 14.7875H34.7857C35.5435 14.7875 36.2702 15.0885 36.806 15.6244C37.3418 16.1602 37.6429 16.8869 37.6429 17.6447V23.3589C37.6429 24.1167 37.3418 24.8434 36.806 25.3793C36.2702 25.9151 35.5435 26.2161 34.7857 26.2161Z" stroke="var(--stroke-0, #F2994A)" stroke-linecap="round" stroke-linejoin="round"/>
</svg>
