<svg preserveAspectRatio="none" width="100%" height="100%" overflow="visible" style="display: block;" viewBox="0 0 13.4529 11.6996" fill="none" xmlns="http://www.w3.org/2000/svg">
<path id="Vector" d="M11.4546 5.26502H0.584794C0.429697 5.26502 0.280952 5.32663 0.171282 5.4363C0.0616121 5.54597 0 5.69472 0 5.84981C0 6.00491 0.0616121 6.15366 0.171282 6.26333C0.280952 6.373 0.429697 6.43461 0.584794 6.43461H11.4546L7.18748 10.6981C7.07746 10.8081 7.01565 10.9574 7.01565 11.113C7.01565 11.2686 7.07746 11.4178 7.18748 11.5278C7.2975 11.6378 7.44673 11.6996 7.60232 11.6996C7.75791 11.6996 7.90714 11.6378 8.01716 11.5278L13.2803 6.26465C13.335 6.2103 13.3784 6.14567 13.408 6.07447C13.4377 6.00328 13.4529 5.92693 13.4529 5.84981C13.4529 5.7727 13.4377 5.69635 13.408 5.62516C13.3784 5.55396 13.335 5.48933 13.2803 5.43498L8.01716 0.171832C7.96268 0.117354 7.89801 0.0741404 7.82683 0.0446575C7.75565 0.0151746 7.67936 1.51869e-09 7.60232 0C7.52528 -1.51869e-09 7.44899 0.0151746 7.37781 0.0446575C7.30663 0.0741404 7.24196 0.117354 7.18748 0.171832C7.133 0.226309 7.08979 0.290983 7.06031 0.362161C7.03082 0.433339 7.01565 0.509627 7.01565 0.58667C7.01565 0.663712 7.03082 0.740001 7.06031 0.811179C7.08979 0.882357 7.133 0.94703 7.18748 1.00151L11.4546 5.26502Z" fill="var(--fill-0, white)"/>
</svg>
