<svg viewBox="0 0 17.2534 15.0048" fill="none" xmlns="http://www.w3.org/2000/svg" preserveAspectRatio="xMidYMid meet">
  <path d="M14.6906 6.75241H0.75C0.551088 6.75241 0.360322 6.83142 0.21967 6.97208C0.0790178 7.11273 0 7.30349 0 7.50241C0 7.70132 0.0790178 7.89208 0.21967 8.03274C0.360322 8.17339 0.551088 8.25241 0.75 8.25241H14.6906L9.21797 13.7204C9.07686 13.8615 8.99759 14.0529 8.99759 14.2524C8.99759 14.452 9.07686 14.6433 9.21797 14.7844C9.35907 14.9255 9.55045 15.0048 9.75 15.0048C9.94955 15.0048 10.1409 14.9255 10.282 14.7844L17.032 8.03444C17.1022 7.96473 17.1579 7.88184 17.1959 7.79053C17.2338 7.69922 17.2534 7.6013 17.2534 7.50241C17.2534 7.40351 17.2338 7.30559 17.1959 7.21428C17.1579 7.12297 17.1022 7.04008 17.032 6.97037L10.282 0.220375C10.2122 0.150507 10.1292 0.0950853 10.0379 0.0572734C9.94665 0.0194615 9.84881 1.94773e-09 9.75 0C9.65119 -1.94773e-09 9.55335 0.0194615 9.46207 0.0572734C9.37078 0.0950853 9.28784 0.150507 9.21797 0.220375C9.1481 0.290242 9.09268 0.373186 9.05487 0.464472C9.01705 0.555758 8.99759 0.653598 8.99759 0.752406C8.99759 0.851213 9.01705 0.949053 9.05487 1.04034C9.09268 1.13163 9.1481 1.21457 9.21797 1.28444L14.6906 6.75241Z" fill="#252a2a"/>
</svg>
