<svg preserveAspectRatio="none" width="100%" height="100%" overflow="visible" style="display: block;" viewBox="0 0 30.6678 29.7403" fill="none" xmlns="http://www.w3.org/2000/svg">
<path id="Star 1" d="M12.1914 5.71005C13.5231 2.39025 14.1889 0.730347 15.3339 0.730347C16.4788 0.730347 17.1447 2.39025 18.4763 5.71005L18.5383 5.86464C19.2906 7.74016 19.6668 8.67792 20.4334 9.2479C21.2001 9.81789 22.2064 9.90802 24.2192 10.0883L24.583 10.1209C27.8771 10.4159 29.5242 10.5634 29.8766 11.6113C30.229 12.6591 29.0059 13.772 26.5595 15.9976L25.7431 16.7404C24.5047 17.8671 23.8855 18.4304 23.5969 19.1688C23.5431 19.3065 23.4983 19.4476 23.4629 19.5912C23.2732 20.3609 23.4546 21.1781 23.8172 22.8125L23.9301 23.3213C24.5965 26.3251 24.9298 27.827 24.3479 28.4748C24.1305 28.7169 23.848 28.8912 23.5341 28.9768C22.694 29.206 21.5014 28.2342 19.1162 26.2906C17.55 25.0143 16.7668 24.3762 15.8677 24.2327C15.5141 24.1762 15.1537 24.1762 14.8 24.2327C13.9009 24.3762 13.1178 25.0143 11.5516 26.2906C9.16633 28.2342 7.97372 29.206 7.13369 28.9768C6.81979 28.8912 6.53723 28.7169 6.31982 28.4748C5.738 27.827 6.07123 26.3251 6.73768 23.3213L6.85056 22.8125C7.2132 21.1781 7.39452 20.3609 7.20482 19.5912C7.16943 19.4476 7.12468 19.3065 7.07084 19.1688C6.78225 18.4304 6.16306 17.8671 4.92468 16.7404L4.10822 15.9976C1.66189 13.772 0.438723 12.6591 0.791151 11.6113C1.14358 10.5634 2.79062 10.4159 6.08472 10.1209L6.44859 10.0883C8.46132 9.90802 9.46768 9.81789 10.2343 9.2479C11.001 8.67792 11.3771 7.74016 12.1294 5.86463L12.1914 5.71005Z" fill="var(--fill-0, #ECBA0B)" stroke="var(--stroke-2, #ECBA0B)" stroke-width="1.46069"/>
</svg>
