<svg preserveAspectRatio="none" width="100%" height="100%" overflow="visible" style="display: block;" viewBox="0 0 22 22" fill="none" xmlns="http://www.w3.org/2000/svg">
<g id="Group">
<g id="Vector">
</g>
<path id="Vector_2" fill-rule="evenodd" clip-rule="evenodd" d="M14.3981 10.3519C14.5699 10.5238 14.6665 10.7569 14.6665 11C14.6665 11.2431 14.5699 11.4762 14.3981 11.6481L9.2125 16.8337C9.12794 16.9212 9.02679 16.9911 8.91495 17.0391C8.80312 17.0871 8.68283 17.1124 8.56112 17.1135C8.4394 17.1145 8.3187 17.0913 8.20604 17.0453C8.09339 16.9992 7.99104 16.9311 7.90497 16.845C7.8189 16.759 7.75084 16.6566 7.70475 16.544C7.65866 16.4313 7.63546 16.3106 7.63652 16.1889C7.63758 16.0672 7.66287 15.9469 7.71091 15.835C7.75895 15.7232 7.82878 15.6221 7.91633 15.5375L12.4538 11L7.91633 6.4625C7.74935 6.28962 7.65696 6.05806 7.65905 5.81772C7.66114 5.57737 7.75754 5.34746 7.9275 5.1775C8.09746 5.00754 8.32737 4.91114 8.56772 4.90905C8.80806 4.90696 9.03961 4.99936 9.2125 5.16633L14.3981 10.3519Z" fill="var(--fill-0, white)"/>
</g>
</svg>
