<svg preserveAspectRatio="none" width="100%" height="100%" overflow="visible" style="display: block;" viewBox="0 0 28.5033 26.5717" fill="none" xmlns="http://www.w3.org/2000/svg">
<path id="Vector" d="M2.605 26.5717V10.9283H0L14.2717 0L28.5033 10.93H25.9383V26.57L2.605 26.5717ZM4.27167 24.905H7.95833V11.0567H20.585V24.9017H24.2717V9.78167L14.2717 2.08333L4.27167 9.78333V24.905ZM9.43167 24.905H19.1117V21.73H9.43167V24.905ZM9.43167 20.255H19.1117V17.115H9.43167V20.255ZM9.43167 15.64H19.1117V12.5317H9.43167V15.64ZM14.2867 8.17333C14.62 8.17333 14.9039 8.05667 15.1383 7.82333C15.3717 7.59 15.4883 7.30111 15.4883 6.95667C15.4883 6.61222 15.3717 6.32278 15.1383 6.08833C14.905 5.85389 14.6161 5.73722 14.2717 5.73833C13.9494 5.73833 13.6661 5.855 13.4217 6.08833C13.1772 6.32056 13.055 6.60945 13.055 6.955C13.055 7.30056 13.1772 7.58944 13.4217 7.82167C13.6661 8.05389 13.955 8.17056 14.2883 8.17167" fill="var(--fill-0, black)"/>
</svg>
