<svg preserveAspectRatio="none" width="100%" height="100%" overflow="visible" style="display: block;" viewBox="0 0 22 22" fill="none" xmlns="http://www.w3.org/2000/svg">
<path id="Vector" fill-rule="evenodd" clip-rule="evenodd" d="M9.51659 0.613587C9.88796 0.2427 10.3848 0.0244639 10.9092 0.00193535C11.4336 -0.0205932 11.9473 0.154222 12.3491 0.49189L12.4834 0.614636L14.4767 2.60689H17.2945C17.8237 2.60699 18.3333 2.80703 18.7212 3.16695C19.1091 3.52686 19.3467 4.02006 19.3864 4.54774L19.3927 4.70511V7.52301L21.3859 9.51632C21.7571 9.88775 21.9755 10.3848 21.9981 10.9095C22.0206 11.4341 21.8456 11.9481 21.5076 12.35L21.3849 12.4832L19.3916 14.4765V17.2944C19.3918 17.8238 19.1919 18.3336 18.832 18.7218C18.472 19.1099 17.9787 19.3477 17.4508 19.3874L17.2945 19.3926H14.4777L12.4845 21.3859C12.113 21.7571 11.6159 21.9755 11.0913 21.9981C10.5667 22.0206 10.0527 21.8456 9.65088 21.5076L9.51764 21.3859L7.52438 19.3926H4.70549C4.17614 19.3928 3.6663 19.1929 3.27816 18.8329C2.89001 18.473 2.65226 17.9796 2.61256 17.4518L2.60732 17.2944V14.4765L0.614053 12.4832C0.24288 12.1118 0.0244642 11.6147 0.00193388 11.0901C-0.0205964 10.5654 0.154397 10.0514 0.492359 9.64956L0.614053 9.51632L2.60732 7.52301V4.70511C2.60741 4.17594 2.80745 3.66634 3.16736 3.27841C3.52726 2.89048 4.02045 2.65288 4.54812 2.61319L4.70549 2.60689H7.52333L9.51659 0.613587ZM14.2301 7.8346L9.77782 12.287L7.92303 10.4322C7.72618 10.2355 7.45925 10.125 7.18096 10.1251C6.90267 10.1252 6.63581 10.2359 6.4391 10.4327C6.24239 10.6296 6.13193 10.8965 6.13203 11.1748C6.13213 11.4531 6.24277 11.72 6.43963 11.9167L8.96163 14.4387C9.06879 14.546 9.19603 14.631 9.33608 14.689C9.47612 14.7471 9.62623 14.7769 9.77782 14.7769C9.92941 14.7769 10.0795 14.7471 10.2196 14.689C10.3596 14.631 10.4868 14.546 10.594 14.4387L15.7135 9.31804C15.9046 9.12018 16.0104 8.85517 16.008 8.5801C16.0056 8.30502 15.8953 8.04189 15.7008 7.84738C15.5063 7.65287 15.2431 7.54253 14.9681 7.54014C14.693 7.53775 14.428 7.6435 14.2301 7.8346Z" fill="var(--fill-0, #F99D27)"/>
</svg>
