<svg preserveAspectRatio="none" width="100%" height="100%" overflow="visible" style="display: block;" viewBox="0 0 24.003 24.0055" fill="none" xmlns="http://www.w3.org/2000/svg">
<g id="Group">
<path id="Vector" d="M10.7514 10.7527L4.50145 4.5027" stroke="var(--stroke-0, white)" stroke-width="1.5"/>
<path id="Vector_2" d="M3.25145 6.3777L6.37645 3.2527L2.62645 1.3777L1.37645 2.6277L3.25145 6.3777ZM21.9702 8.22145C22.5703 7.62185 22.9832 6.86069 23.1585 6.03067C23.3339 5.20064 23.2641 4.33754 22.9577 3.54645L21.1802 5.32395H18.6802V2.82395L20.4577 1.04645C19.6666 0.739376 18.8032 0.669026 17.9728 0.843971C17.1423 1.01892 16.3807 1.4316 15.7807 2.03175C15.1807 2.6319 14.7682 3.3936 14.5934 4.22406C14.4187 5.05452 14.4892 5.91788 14.7964 6.70895L6.70895 14.7977C5.91788 14.4905 5.05452 14.4199 4.22406 14.5947C3.3936 14.7694 2.6319 15.182 2.03175 15.782C1.4316 16.382 1.01891 17.1436 0.843971 17.974C0.669026 18.8044 0.739376 19.6678 1.04645 20.4589L2.8227 18.6815H5.3227V21.1814L3.5452 22.9589C4.33614 23.266 5.19931 23.3365 6.02958 23.1617C6.85985 22.987 7.6214 22.5746 8.22149 21.9748C8.82157 21.375 9.23429 20.6136 9.4094 19.7834C9.5845 18.9532 9.51442 18.09 9.2077 17.2989L17.2977 9.20895C18.0885 9.5148 18.9511 9.5843 19.7806 9.40898C20.6101 9.23367 21.3708 8.8211 21.9702 8.22145Z" stroke="var(--stroke-0, white)" stroke-width="1.5" stroke-linejoin="round"/>
<path id="Vector_3" d="M11.7477 15.1277L18.7527 22.1327C18.9094 22.2897 19.0956 22.4143 19.3006 22.4993C19.5055 22.5843 19.7252 22.6281 19.9471 22.6281C20.169 22.6281 20.3886 22.5843 20.5936 22.4993C20.7985 22.4143 20.9847 22.2897 21.1415 22.1327L22.1315 21.1427C22.2885 20.986 22.4131 20.7998 22.4981 20.5948C22.5831 20.3899 22.6268 20.1702 22.6268 19.9483C22.6268 19.7265 22.5831 19.5068 22.4981 19.3018C22.4131 19.0969 22.2885 18.9107 22.1315 18.7539L15.1265 11.749" stroke="var(--stroke-0, white)" stroke-width="1.5" stroke-linejoin="round"/>
</g>
</svg>
