<svg preserveAspectRatio="none" width="100%" height="100%" overflow="visible" style="display: block;" viewBox="0 0 27.6021 27.7253" fill="none" xmlns="http://www.w3.org/2000/svg">
<path id="Vector" d="M12.9437 0L12.0519 2.03613C11.5903 2.06426 11.131 2.12239 10.6769 2.21016L9.31271 0.448594L7.84236 0.948516L7.83504 3.18973C7.21219 3.50988 6.61529 3.89695 6.05145 4.34871L3.97342 3.41309L2.90953 4.54471L3.97336 6.5625C3.63396 7.04635 3.33569 7.55779 3.08168 8.09144L0.800156 8.15367L0.336914 9.63492L2.17898 10.9918C2.0908 11.5414 2.04773 12.0968 2.04527 12.6526L0 13.689L0.214219 15.2271L2.45912 15.6665C2.59339 16.1364 2.7598 16.5964 2.95717 17.0435L1.47773 18.8801L2.3035 20.1947L4.6033 19.6564C4.74883 19.8276 4.89964 19.9943 5.05553 20.1562C5.38107 20.493 5.72787 20.8086 6.09381 21.101L5.64703 23.4045L6.99105 24.1809L8.74699 22.6519C9.24944 22.8539 9.76674 23.0167 10.2943 23.139L10.8674 25.3893L12.4146 25.5157L13.3448 23.3934C13.9876 23.3548 14.6282 23.2587 15.2582 23.1041L16.736 24.8162L18.177 24.2394L18.1348 23.3715L14.7711 20.8209C13.7919 21.0684 12.7765 21.1347 11.7792 21.0222C9.91857 20.8124 8.13053 19.9722 6.72732 18.5211C3.52002 15.2038 3.61172 9.92713 6.92877 6.71994C8.53541 5.16645 10.602 4.37836 12.671 4.35604C14.8735 4.33225 17.078 5.17611 18.7318 6.88652C21.4233 9.67043 21.7901 13.8583 19.878 17.0288L21.7512 18.4497C21.9842 18.0845 22.1945 17.7054 22.3811 17.3145L24.6461 17.2522L25.1093 15.7709L23.2802 14.4233C23.3685 13.8691 23.4131 13.3089 23.4138 12.7478L25.4463 11.7151L25.2321 10.177L22.9891 9.73758C22.8004 9.08786 22.5502 8.45758 22.2421 7.85525L23.5786 6.00404L22.685 4.73508L20.4843 5.3741C20.4566 5.3448 20.4298 5.3151 20.4018 5.28621C20.0553 4.92781 19.6846 4.59374 19.2922 4.28637L19.7133 2.11107L18.3691 1.33477L16.6992 2.78871C16.1586 2.57115 15.6034 2.40182 15.0403 2.27602L14.4928 0.126328L12.9437 0ZM9.53613 8.99414C8.93004 9.00105 8.32928 9.14988 7.77832 9.4207L10.4279 11.4313C11.2293 12.0393 11.4565 13.1947 10.8416 14.0057C10.2265 14.8172 9.04535 14.9392 8.23242 14.3226L5.58469 12.3139C5.31357 13.7666 5.82697 15.3059 7.08434 16.2598C8.21197 17.1151 9.65918 17.2753 10.9058 16.8275L11.1859 16.7267L11.422 16.9062L19.3433 22.9158L19.5795 23.0952L19.5593 23.3919C19.4634 24.7131 20.004 26.0643 21.1322 26.9202C22.3896 27.8741 24.0118 27.9532 25.338 27.3011L22.6904 25.2925C21.8775 24.6757 21.6778 23.505 22.2932 22.6942C22.9084 21.8832 24.0824 21.7915 24.884 22.3993L27.5317 24.4081C27.8022 22.9559 27.2909 21.4159 26.0339 20.4622C24.9023 19.6033 23.4665 19.4331 22.2272 19.8743L21.9489 19.9732L21.7127 19.7937L13.7914 13.7842L13.5553 13.6048L13.5755 13.31C13.6663 11.9983 13.1155 10.662 11.9842 9.8035C11.2492 9.24592 10.3892 8.98447 9.53619 8.9942L9.53613 8.99414ZM12.0887 14.2822L21.6907 21.568L21.0296 22.4414L11.4258 15.1538L12.0887 14.2822Z" fill="var(--fill-0, black)"/>
</svg>
