<svg width="25" height="25" viewBox="0 0 25 25" fill="none" xmlns="http://www.w3.org/2000/svg">
<path fill-rule="evenodd" clip-rule="evenodd" d="M11.0269 2.18718C11.3957 1.81892 11.889 1.60223 12.4097 1.57986C12.9303 1.55749 13.4405 1.73107 13.8394 2.06634L13.9728 2.18822L15.9519 4.16634H18.7498C19.2753 4.16644 19.7812 4.36506 20.1664 4.72242C20.5516 5.07978 20.7875 5.56949 20.8269 6.09343L20.8332 6.24968V9.04759L22.8123 11.0268C23.1809 11.3956 23.3978 11.8891 23.4201 12.41C23.4425 12.9309 23.2688 13.4413 22.9332 13.8403L22.8113 13.9726L20.8321 15.9518V18.7497C20.8323 19.2753 20.6338 19.7815 20.2764 20.1669C19.919 20.5523 19.4292 20.7884 18.9051 20.8278L18.7498 20.833H15.953L13.9738 22.8122C13.605 23.1807 13.1114 23.3976 12.5905 23.42C12.0696 23.4423 11.5593 23.2686 11.1603 22.933L11.028 22.8122L9.04881 20.833H6.24985C5.72425 20.8332 5.21801 20.6347 4.83261 20.2773C4.44721 19.9199 4.21114 19.43 4.17172 18.9059L4.16651 18.7497V15.9518L2.18735 13.9726C1.8188 13.6038 1.60193 13.1102 1.57956 12.5893C1.55719 12.0684 1.73094 11.5581 2.06651 11.1591L2.18735 11.0268L4.16651 9.04759V6.24968C4.16661 5.72426 4.36523 5.21827 4.72259 4.8331C5.07995 4.44792 5.56966 4.212 6.0936 4.17259L6.24985 4.16634H9.04776L11.0269 2.18718ZM15.7071 9.35697L11.2863 13.7778L9.44464 11.9361C9.24918 11.7408 8.98414 11.6311 8.70781 11.6312C8.43149 11.6313 8.16652 11.7412 7.9712 11.9367C7.77588 12.1321 7.66621 12.3972 7.6663 12.6735C7.6664 12.9498 7.77626 13.2148 7.97172 13.4101L10.4759 15.9143C10.5823 16.0207 10.7086 16.1052 10.8477 16.1628C10.9867 16.2204 11.1358 16.2501 11.2863 16.2501C11.4368 16.2501 11.5859 16.2204 11.7249 16.1628C11.864 16.1052 11.9903 16.0207 12.0967 15.9143L17.1801 10.8299C17.3698 10.6334 17.4748 10.3703 17.4724 10.0972C17.4701 9.82405 17.3605 9.56279 17.1674 9.36966C16.9742 9.17652 16.713 9.06697 16.4398 9.0646C16.1667 9.06223 15.9036 9.16722 15.7071 9.35697Z" fill="#F99D27"/>
</svg>
