<svg width="60" height="60" viewBox="0 0 60 60" fill="none" xmlns="http://www.w3.org/2000/svg">
<path d="M40 5H20C18.6739 5 17.4021 5.52678 16.4645 6.46447C15.5268 7.40215 15 8.67392 15 10V50C15 51.3261 15.5268 52.5979 16.4645 53.5355C17.4021 54.4732 18.6739 55 20 55H40C41.3261 55 42.5979 54.4732 43.5355 53.5355C44.4732 52.5979 45 51.3261 45 50V10C45 8.67392 44.4732 7.40215 43.5355 6.46447C42.5979 5.52678 41.3261 5 40 5ZM32.5 52.5H27.5V50H32.5V52.5ZM40 47.5H20V12.5H40V47.5Z" fill="white"/>
</svg>
